<?xml version="1.0" encoding="UTF-8" standalone="no"?>
<svg
   xmlns:dc="http://purl.org/dc/elements/1.1/"
   xmlns:cc="http://creativecommons.org/ns#"
   xmlns:rdf="http://www.w3.org/1999/02/22-rdf-syntax-ns#"
   xmlns:svg="http://www.w3.org/2000/svg"
   xmlns="http://www.w3.org/2000/svg"
   xmlns:xlink="http://www.w3.org/1999/xlink"
   xmlns:sodipodi="http://sodipodi.sourceforge.net/DTD/sodipodi-0.dtd"
   xmlns:inkscape="http://www.inkscape.org/namespaces/inkscape"
   version="1.0"
   id="Snowflake_1_"
   x="0px"
   y="0px"
   width="19.507837"
   height="18.689381"
   viewBox="0 0 19.507837 18.689381"
   enable-background="new 0 0 512 512"
   xml:space="preserve"
   sodipodi:docname="start.svg"
   inkscape:version="1.0.1 (3bc2e813f5, 2020-09-07)"><metadata
   id="metadata12"><rdf:RDF><cc:Work
       rdf:about=""><dc:format>image/svg+xml</dc:format><dc:type
         rdf:resource="http://purl.org/dc/dcmitype/StillImage" /><dc:title /></cc:Work></rdf:RDF></metadata><defs
   id="defs10"><linearGradient
     inkscape:collect="always"
     xlink:href="#linearGradient843"
     id="linearGradient845"
     x1="1606.6082"
     y1="3515.3342"
     x2="6524.8862"
     y2="-1385.9556"
     gradientUnits="userSpaceOnUse"
     gradientTransform="matrix(0.01842227,0,0,0.01842227,385.81531,4771.9707)" /><linearGradient
     inkscape:collect="always"
     id="linearGradient843"><stop
       style="stop-color:#cccccc;stop-opacity:1"
       offset="0"
       id="stop839" /><stop
       style="stop-color:#2868a4;stop-opacity:1"
       offset="1"
       id="stop841" /></linearGradient></defs><sodipodi:namedview
   pagecolor="#ffffff"
   bordercolor="#666666"
   borderopacity="1"
   objecttolerance="10"
   gridtolerance="10"
   guidetolerance="10"
   inkscape:pageopacity="0"
   inkscape:pageshadow="2"
   inkscape:window-width="1920"
   inkscape:window-height="1021"
   id="namedview8"
   showgrid="false"
   inkscape:zoom="14.75"
   inkscape:cx="11.235751"
   inkscape:cy="8.9431427"
   inkscape:window-x="0"
   inkscape:window-y="0"
   inkscape:window-maximized="1"
   inkscape:current-layer="Snowflake_1_"
   inkscape:document-rotation="0" />
<g
   id="g11"
   transform="matrix(0.03937008,0,0,0.03937008,-0.3491542,-0.73522098)">     
<g
   id="Shape_17">
	<g
   id="g4">
		
	</g>
</g>
</g>
<g
   id="start-here-kde"
   transform="translate(-38.072993,-24.260142)"><g
     transform="matrix(0.1,0,0,-0.1,0,511)"
     id="g6"><path
       d="m 474.59409,4863.0209 c -0.86032,-0.9174 -0.97453,-2.638 -0.97453,-12.2176 v -11.1271 l -8.83164,8.8317 -8.83164,8.8335 -1.83486,-0.7461 c -2.00803,-0.8604 -3.44128,-2.581 -3.44128,-4.3016 0,-0.7462 4.07132,-5.2191 11.47155,-12.6175 l 11.47155,-11.4715 v -12.1587 -12.1587 l -3.26995,-0.9174 c -3.49839,-1.0317 -8.48899,-3.3271 -9.92224,-4.6461 -0.80321,-0.6872 -2.06514,0.3445 -9.63485,7.9731 l -8.71742,8.7174 -0.11422,16.3461 -0.17133,16.289 -1.54931,0.8603 c -1.14771,0.6319 -2.00803,0.7461 -3.72867,0.3445 l -2.17935,-0.5729 -0.28739,-12.5032 -0.28739,-12.4461 -6.88256,6.9397 c -3.78578,3.7857 -7.62866,7.2841 -8.48898,7.7428 -2.75229,1.4923 -5.56353,-0.2284 -5.56353,-3.327 0,-1.5493 1.14771,-2.9255 7.4555,-9.3493 4.13027,-4.1303 7.45549,-7.6858 7.45549,-7.9142 0,-0.2303 -5.44931,-0.3445 -12.10159,-0.3445 -9.75091,0.057 -12.21581,-0.057 -12.61742,-0.689 -0.7461,-1.2048 -0.63004,-5.3333 0.17317,-6.1365 0.51583,-0.5158 5.0477,-0.689 16.8048,-0.689 h 16.0587 l 8.77453,-8.7745 8.77452,-8.7764 -2.00802,-3.8429 c -1.0906,-2.1222 -2.35253,-5.3922 -2.75229,-7.2841 l -0.68899,-3.4413 H 435.76547 423.4336 l -11.47155,11.4734 c -6.59518,6.5952 -11.93027,11.4715 -12.5032,11.4715 -1.37615,0 -4.41582,-3.0396 -4.41582,-4.4158 0,-0.5729 3.9,-4.9316 8.71742,-9.7509 l 8.77453,-8.7745 H 401.2366 389.93822 l -1.14771,-1.4922 c -1.49221,-1.892 -1.49221,-3.1539 -0.11422,-4.8746 1.0906,-1.319 1.37615,-1.3761 12.04448,-1.6635 l 10.95573,-0.2874 -8.31766,-8.3176 c -5.27614,-5.2762 -8.31581,-8.7175 -8.31581,-9.4636 0.0571,-2.4096 3.78578,-5.3332 5.56353,-4.3587 0.57293,0.2874 5.90802,5.5065 11.93026,11.4716 l 10.89678,10.9539 h 12.38898 12.44424 l 0.63004,-2.6952 c 0.40161,-1.5493 1.72064,-4.6461 2.98257,-6.9968 l 2.29357,-4.3016 -8.77453,-8.7745 -8.77453,-8.7764 h -16.17475 c -15.42866,0 -16.23187,-0.057 -16.8048,-1.0906 -0.80321,-1.5493 -0.7461,-4.8174 0.11422,-5.6777 0.51582,-0.5159 4.18738,-0.689 12.96191,-0.689 h 12.2766 l -7.68577,-8.0874 c -4.70321,-4.9317 -7.68577,-8.5461 -7.79999,-9.4064 -0.28739,-2.1223 2.35068,-4.5319 4.35871,-4.0142 0.91743,0.2284 4.6461,3.3841 9.17613,7.9142 l 7.57156,7.5715 v -12.1587 c 0,-11.9302 0,-12.1587 1.26192,-13.019 1.66354,-1.1477 3.84289,-1.1477 5.50642,0 1.26193,0.8603 1.26193,0.9745 1.26193,17.0351 v 16.1747 l 8.71742,8.7175 8.66031,8.6603 2.92546,-1.6065 c 2.75228,-1.4922 6.53806,-2.8683 10.26673,-3.6715 l 1.54931,-0.3445 v -12.2158 -12.1587 l -11.47155,-11.4716 c -12.27292,-12.2747 -12.67636,-12.9048 -10.03645,-15.4857 2.52385,-2.581 3.38417,-2.0652 12.33187,6.8825 4.58899,4.589 8.48898,8.3158 8.71742,8.3158 0.28739,0 0.45871,-4.9905 0.45871,-11.127 0,-10.8968 0.0571,-11.1842 1.26193,-12.0445 1.77775,-1.2619 3.66972,-1.1477 5.0477,0.2303 1.08876,1.0906 1.14771,1.892 1.14771,12.0445 0,6.0222 0.17133,10.8967 0.45871,10.8967 0.23028,0 4.13028,-3.7286 8.71742,-8.3158 5.90803,-5.908 8.66031,-8.3158 9.63485,-8.3158 1.60643,0 4.13028,2.581 4.13028,4.2445 0,0.8032 -3.78578,4.9906 -11.47155,12.6764 l -11.47155,11.4715 v 12.2158 c 0,9.2333 0.17132,12.2748 0.7461,12.389 0.3445,0.1732 2.17935,0.689 4.01421,1.2619 1.83486,0.5159 4.81743,1.8349 6.59518,2.9255 l 3.211,1.9491 8.77637,-8.7746 8.77453,-8.7745 -0.0571,-15.7731 c -0.0571,-8.6603 -0.0571,-16.0587 0,-16.4603 0,-0.3445 0.97454,-0.9746 2.06514,-1.3191 1.54931,-0.5158 2.29357,-0.4587 3.5555,0.1142 l 1.60642,0.7461 0.28739,12.5032 0.28738,12.4461 7.74289,-7.7428 c 6.59517,-6.5952 7.97316,-7.7429 9.52063,-7.7429 2.17935,0 3.67156,1.5493 3.67156,3.7857 0,1.3762 -1.37615,3.0397 -7.8571,9.5207 l -7.91421,7.9142 h 12.38898 c 13.13508,0 13.19219,0 13.87934,2.7523 0.4016,1.6064 -0.57294,4.7032 -1.49036,4.7603 -0.40161,0.057 -7.8,0.057 -16.46031,0 l -15.77315,-0.1142 -8.78005,8.8316 -8.83164,8.8316 2.06514,3.8429 c 1.09059,2.0652 2.35252,5.3351 2.75413,7.2271 l 0.68715,3.4413 h 12.33187 12.38898 l 11.58576,-11.5858 11.52682,-11.5287 1.83486,0.7461 c 2.00803,0.8604 3.44128,2.581 3.44128,4.3017 0,0.6889 -3.15389,4.3016 -8.43187,9.5777 l -8.48715,8.489 h 10.78256 c 10.66834,0 10.78256,0 12.1587,1.4332 1.83486,1.7778 1.83486,3.3842 0,5.1619 -1.37614,1.4333 -1.49036,1.4333 -12.44609,1.4333 h -11.06994 l 8.77453,8.7745 c 4.81742,4.8175 8.71742,9.1762 8.71742,9.7509 0,1.3762 -3.03968,4.4159 -4.41582,4.4159 -0.57293,0 -5.90802,-4.8746 -12.5032,-11.4716 l -11.47155,-11.4715 h -12.38898 -12.38898 l -1.03164,3.7286 c -0.51583,2.0652 -1.83486,5.1619 -2.92546,6.9397 -1.08876,1.7777 -1.94908,3.3842 -1.94908,3.6126 0,0.1732 3.78578,4.1874 8.48899,8.8335 l 8.43187,8.4319 h 16.4603 c 15.7142,0 16.51741,0.057 17.09219,1.0887 0.28739,0.6319 0.57293,1.9509 0.57293,2.9255 0,0.9745 -0.28739,2.2935 -0.57293,2.9254 -0.57293,1.0317 -1.31904,1.0906 -13.07613,1.0906 h -12.44609 l 7.91421,7.9142 c 8.48898,8.489 9.17613,9.7509 6.59517,12.1587 -2.46674,2.2936 -3.5555,1.6636 -12.04448,-6.7112 l -7.91421,-7.8571 v 12.4461 c 0,11.7 -0.0571,12.4461 -1.0906,13.019 -0.63004,0.2874 -1.94907,0.5729 -2.92545,0.5729 -0.97454,0 -2.29358,-0.2873 -2.92546,-0.5729 -1.03349,-0.5729 -1.0906,-1.3761 -1.0906,-17.0922 v -16.4603 l -8.66031,-8.6603 -8.71558,-8.7156 -2.63807,1.6065 c -2.8094,1.7206 -6.48095,3.0967 -9.97934,3.7286 l -2.12225,0.4016 v 12.1587 12.1016 l 11.47155,11.4716 c 8.37292,8.3729 11.47155,11.8142 11.47155,12.7906 0,1.6064 -2.92546,4.7032 -4.35871,4.7032 -0.57293,0 -4.93164,-3.9 -9.80802,-8.7175 l -8.77453,-8.7174 v 11.1842 c 0,10.1525 -0.11422,11.2984 -1.03165,12.1587 -1.43693,1.2601 -4.30528,1.203 -5.45115,-0.059 z m 11.69815,-73.0701 c 6.25252,-3.6715 9.40641,-9.0619 9.40641,-15.9444 0,-6.9397 -3.49839,-12.6764 -9.6938,-15.9445 -2.52385,-1.3191 -3.61261,-1.5493 -8.08738,-1.5493 -4.3016,0 -5.56353,0.2284 -7.62866,1.319 -3.78578,2.008 -6.82545,5.0477 -8.54609,8.6032 -1.31904,2.6952 -1.60643,4.0142 -1.54932,7.5716 0,5.7348 1.60642,9.4064 5.73486,13.1332 4.13027,3.7858 6.71123,4.6461 12.9048,4.4748 4.07685,-0.1732 5.33877,-0.4016 7.45918,-1.6636 z"
       id="path4"
       style="fill:url(#linearGradient845);fill-opacity:1;stroke-width:0.0184223" /></g></g></svg>
