<?xml version="1.0" encoding="UTF-8" standalone="no"?>
<!-- Generator: Adobe Illustrator 13.0.2, SVG Export Plug-In . SVG Version: 6.00 Build 14948)  -->

<svg
   xmlns:dc="http://purl.org/dc/elements/1.1/"
   xmlns:cc="http://creativecommons.org/ns#"
   xmlns:rdf="http://www.w3.org/1999/02/22-rdf-syntax-ns#"
   xmlns:svg="http://www.w3.org/2000/svg"
   xmlns="http://www.w3.org/2000/svg"
   xmlns:sodipodi="http://sodipodi.sourceforge.net/DTD/sodipodi-0.dtd"
   xmlns:inkscape="http://www.inkscape.org/namespaces/inkscape"
   version="1.0"
   id="Snowflake_1_"
   x="0px"
   y="0px"
   width="19.507837"
   height="18.689381"
   viewBox="0 0 19.507837 18.689381"
   enable-background="new 0 0 512 512"
   xml:space="preserve"
   sodipodi:docname="start.svg"
   inkscape:version="0.92.4 (5da689c313, 2019-01-14)"><metadata
   id="metadata12"><rdf:RDF><cc:Work
       rdf:about=""><dc:format>image/svg+xml</dc:format><dc:type
         rdf:resource="http://purl.org/dc/dcmitype/StillImage" /><dc:title /></cc:Work></rdf:RDF></metadata><defs
   id="defs10" /><sodipodi:namedview
   pagecolor="#ffffff"
   bordercolor="#666666"
   borderopacity="1"
   objecttolerance="10"
   gridtolerance="10"
   guidetolerance="10"
   inkscape:pageopacity="0"
   inkscape:pageshadow="2"
   inkscape:window-width="1920"
   inkscape:window-height="1031"
   id="namedview8"
   showgrid="false"
   inkscape:zoom="14.75"
   inkscape:cx="11.235751"
   inkscape:cy="8.9431427"
   inkscape:window-x="0"
   inkscape:window-y="0"
   inkscape:window-maximized="1"
   inkscape:current-layer="Snowflake_1_" />
<g
   id="start-here-kde"
   transform="matrix(0.03937008,0,0,0.03937008,-0.3491542,-0.73522098)">     
<g
   id="Shape_17">
	<g
   id="g4">
		<path
   d="m 504.021,212.76 c -2.205,-12.74 -14.273,-21.292 -26.989,-19.084 -10.769,1.852 -18.55,10.714 -19.397,21.112 l -28.753,4.964 c -9.092,1.547 -12.229,-3.329 -7.017,-10.938 0,0 6.706,-9.71 14.948,-21.671 8.215,-11.975 9.403,-18.156 6.438,-20.337 -2.88,-2.144 -10.543,3.083 -20.824,18.046 l -18.651,27.112 c -5.255,7.557 -16.825,14.978 -25.913,16.513 l -24.961,4.311 c -9.088,1.55 -12.256,-3.365 -7.026,-10.949 l 30.883,-45.382 c 11.518,2.125 23.244,-4.248 27.446,-15.591 4.661,-12.714 -1.814,-26.856 -14.53,-31.517 -12.699,-4.729 -26.829,1.763 -31.49,14.506 -1.069,2.881 -1.556,5.834 -1.529,8.735 l -50.271,22.12 c -8.435,3.703 -12.689,-0.294 -9.483,-8.942 l 8.766,-23.773 c 3.195,-8.592 12.582,-18.68 21.028,-22.451 0,0 13.416,-5.993 30.023,-13.387 16.563,-7.396 23.659,-13.578 22.209,-16.931 -1.429,-3.339 -8.247,-3.69 -21.658,2.291 l -24.244,10.8 c -8.418,3.76 -12.619,-0.215 -9.456,-8.863 l 10.35,-27.999 c 9.833,0.323 19.21,-5.611 22.8,-15.302 4.458,-12.108 -1.756,-25.55 -13.852,-30.008 -12.133,-4.498 -25.603,1.67 -30.087,13.778 -3.744,10.238 0.066,21.424 8.605,27.374 l -10.072,27.361 c -3.179,8.689 -8.958,8.973 -12.93,0.648 0,0 -5.063,-10.666 -11.33,-23.8 -6.208,-13.104 -11.014,-17.212 -14.343,-15.759 -3.366,1.456 -2.627,10.695 5.148,27.085 l 14.166,29.7 c 3.934,8.309 4.538,22.033 1.387,30.683 L 284.603,161 c -3.205,8.661 -8.97,8.959 -12.983,0.621 l -22.993,-47.679 c 2.298,-2.375 4.152,-5.249 5.364,-8.54 4.688,-12.716 -1.831,-26.842 -14.53,-31.53 -12.678,-4.661 -26.792,1.86 -31.506,14.533 -3.972,10.758 0.081,22.527 9.167,28.735 l -6.068,55.12 c -0.995,9.16 -6.599,10.816 -12.486,3.73 l -16.2,-19.488 c -5.876,-7.057 -9.848,-20.217 -8.921,-29.4 0,0 1.552,-14.629 3.452,-32.703 1.857,-18.048 0.081,-27.288 -3.559,-27.679 -3.596,-0.444 -7.354,5.279 -8.874,19.853 l -2.777,26.414 c -0.926,9.13 -6.502,10.826 -12.347,3.77 L 130.228,93.742 c 5.206,-8.341 4.756,-19.388 -1.816,-27.345 -8.295,-9.925 -23.034,-11.271 -32.956,-3.016 -9.981,8.269 -11.314,23.019 -3.045,32.93 6.958,8.405 18.567,10.636 27.981,6.174 l 18.66,22.487 c 5.897,7.087 3.232,12.246 -5.952,11.518 0,0 -11.746,-0.972 -26.224,-2.101 -14.465,-1.132 -20.486,0.956 -20.85,4.565 -0.391,3.623 7.932,7.61 26.037,9.036 l 32.807,2.602 c 9.157,0.738 21.39,7.109 27.272,14.169 l 16.216,19.488 c 5.85,7.109 3.195,12.296 -5.988,11.584 l -52.802,-3.943 c -0.907,-3.177 -2.468,-6.224 -4.714,-8.934 -8.643,-10.411 -24.104,-11.827 -34.529,-3.165 -10.441,8.673 -11.828,24.123 -3.179,34.532 7.328,8.812 19.52,11.176 29.405,6.462 l 44.723,32.812 c 7.439,5.416 6.134,11.073 -2.949,12.663 l -24.998,4.268 c -9.061,1.603 -22.478,-1.536 -29.954,-6.949 0,0 -11.865,-8.646 -26.572,-19.328 -14.706,-10.653 -23.612,-13.711 -25.752,-10.773 -2.194,2.949 0.878,9.037 12.78,17.589 l 21.429,15.624 c 7.503,5.414 6.144,11.071 -2.906,12.634 l -29.439,5.028 c -4.622,-8.67 -14.438,-13.855 -24.667,-12.128 -12.684,2.21 -21.236,14.306 -19.031,27.045 2.146,12.729 14.278,21.296 26.994,19.088 10.72,-1.843 18.515,-10.739 19.372,-21.122 l 28.763,-4.955 c 9.065,-1.495 12.229,3.326 7.005,10.896 0,0 -6.695,9.765 -14.938,21.699 -8.214,11.985 -9.403,18.236 -6.464,20.35 2.949,2.141 10.575,-3.099 20.877,-18.062 l 18.651,-27.086 c 5.229,-7.567 16.799,-14.964 25.886,-16.526 l 24.961,-4.269 c 9.077,-1.575 12.202,3.327 7.028,10.91 l -29.791,43.777 c -3.215,-0.806 -6.646,-0.977 -10.128,-0.382 -13.321,2.276 -22.274,14.977 -19.963,28.351 2.265,13.334 14.938,22.264 28.311,19.989 11.3,-1.94 19.474,-11.326 20.298,-22.274 l 50.779,-22.336 c 8.419,-3.703 12.647,0.297 9.483,8.93 l -8.808,23.8 c -3.169,8.621 -12.566,18.67 -20.985,22.44 0,0 -13.454,5.993 -30.034,13.4 -16.569,7.381 -23.666,13.548 -22.253,16.904 1.456,3.353 8.285,3.716 21.669,-2.225 l 24.26,-10.829 c 8.392,-3.797 12.631,0.203 9.467,8.81 l -10.358,28.033 c -9.835,-0.345 -19.213,5.574 -22.812,15.281 -4.475,12.162 1.76,25.565 13.881,30.077 12.123,4.458 25.567,-1.739 30.051,-13.831 3.762,-10.24 -0.072,-21.45 -8.637,-27.389 l 10.104,-27.377 c 3.222,-8.633 8.996,-8.916 12.956,-0.632 0,0 5.063,10.666 11.288,23.783 6.251,13.134 11.057,17.268 14.385,15.786 3.356,-1.453 2.628,-10.707 -5.159,-27.087 l -14.155,-29.709 c -3.934,-8.285 -4.565,-22.037 -1.402,-30.669 l 8.825,-23.76 c 3.152,-8.659 8.981,-8.97 12.967,-0.645 l 22.997,47.689 c -2.308,2.376 -4.171,5.254 -5.389,8.555 -4.661,12.714 1.857,26.802 14.546,31.49 12.711,4.673 26.813,-1.819 31.501,-14.52 3.972,-10.771 -0.083,-22.517 -9.146,-28.722 l 6.02,-55.106 c 1.065,-9.146 6.626,-10.829 12.513,-3.759 l 16.189,19.476 c 5.887,7.059 9.885,20.271 8.943,29.401 0,0 -1.537,14.641 -3.437,32.703 -1.867,18.075 -0.08,27.286 3.543,27.719 3.586,0.432 7.38,-5.295 8.879,-19.882 l 2.745,-26.397 c 0.958,-9.16 6.546,-10.843 12.379,-3.743 l 19.124,22.963 c -5.205,8.347 -4.771,19.395 1.845,27.341 8.284,9.941 23.034,11.313 32.919,3.072 9.98,-8.258 11.303,-23.031 3.072,-32.985 -6.99,-8.363 -18.602,-10.621 -28,-6.179 l -18.685,-22.483 c -5.86,-7.07 -3.217,-12.202 5.957,-11.527 0,0 11.741,0.969 26.245,2.141 14.439,1.118 20.449,-0.955 20.84,-4.579 0.374,-3.623 -7.937,-7.623 -26.01,-9.039 l -32.796,-2.599 c -9.184,-0.768 -21.402,-7.096 -27.315,-14.183 l -16.2,-19.475 c -5.877,-7.112 -3.195,-12.255 5.967,-11.57 l 52.794,3.935 c 0.905,3.177 2.466,6.223 4.717,8.928 8.713,10.413 24.148,11.799 34.546,3.166 10.426,-8.675 11.854,-24.109 3.206,-34.535 -7.354,-8.847 -19.563,-11.188 -29.455,-6.458 l -44.704,-32.789 c -7.418,-5.4 -6.086,-11.097 2.976,-12.713 l 24.96,-4.244 c 9.087,-1.574 22.531,1.563 29.98,6.965 0,0 11.876,8.633 26.571,19.313 14.708,10.642 23.569,13.711 25.77,10.776 2.178,-2.869 -0.921,-8.983 -12.77,-17.617 l -21.509,-15.597 c -7.477,-5.373 -6.117,-11.057 2.976,-12.593 l 29.41,-5.042 c 4.61,8.677 14.41,13.825 24.627,12.085 12.707,-2.193 21.301,-14.289 19.091,-27.031 z m -203.978,-20.889 60.336,-26.532 c 1.21,1.94 2.693,3.715 4.421,5.265 l -36.987,54.304 c -4.262,6.279 -12.866,12.404 -20.836,15.252 -3.954,-13.037 -12.833,-24.433 -25.305,-31.29 4.316,-7.094 11.645,-14.067 18.371,-16.999 z m -57.27,99.21 c -19.614,-7.273 -29.633,-28.959 -22.43,-48.608 7.29,-19.598 29.029,-29.576 48.653,-22.412 19.621,7.272 29.602,29.012 22.382,48.663 -7.283,19.555 -28.97,29.589 -48.605,22.357 z m 25.439,-87.393 c -14.078,-3.364 -28.488,-0.755 -40.237,6.44 -3.777,-7.217 -6,-16.698 -5.208,-23.805 l 7.104,-64.907 c 2.502,0.114 4.978,-0.165 7.35,-0.792 l 28.056,58.155 c 3.181,6.652 4.245,16.717 2.935,24.909 z m -141.563,8.169 c 1.351,-2.112 2.348,-4.394 2.992,-6.759 l 64.415,4.833 c 7.165,0.494 16.146,4.449 22.554,9.519 -4.592,4.978 -8.313,10.909 -10.807,17.649 -2.526,6.853 -3.555,13.89 -3.26,20.756 -8.136,-0.333 -17.456,-3.174 -23.237,-7.368 z m 86.544,108.316 -59.809,26.3 c -1.152,-2.225 -2.629,-4.23 -4.357,-5.971 L 185.38,287.12 c 4.098,-5.995 12.137,-11.875 19.803,-14.864 4.292,13.04 13.545,24.313 26.396,30.861 -4.291,7.095 -11.657,14.085 -18.386,17.056 z m 31.879,-12.298 c 13.9,2.892 28.007,0.036 39.465,-7.239 4.189,7.353 6.737,17.563 5.889,25.074 l -7.106,64.932 c -2.494,-0.107 -4.963,0.172 -7.329,0.798 l -28.084,-58.176 c -3.22,-6.786 -4.268,-17.116 -2.835,-25.389 z m 141.484,-7.712 c -1.351,2.112 -2.35,4.397 -2.995,6.768 l -64.422,-4.833 c -7.61,-0.547 -17.358,-4.987 -23.81,-10.521 4.513,-4.943 8.175,-10.814 10.638,-17.48 2.429,-6.584 3.463,-13.338 3.279,-19.948 8.445,0.027 18.543,2.945 24.651,7.409 z"
   id="path2"
   style="fill:#2e75bc;fill-opacity:1"
   inkscape:connector-curvature="0" />
	</g>
</g>
</g>
</svg>