<?xml version="1.0" encoding="UTF-8" standalone="no"?>
<svg
   xmlns:dc="http://purl.org/dc/elements/1.1/"
   xmlns:cc="http://creativecommons.org/ns#"
   xmlns:rdf="http://www.w3.org/1999/02/22-rdf-syntax-ns#"
   xmlns:svg="http://www.w3.org/2000/svg"
   xmlns="http://www.w3.org/2000/svg"
   xmlns:xlink="http://www.w3.org/1999/xlink"
   xmlns:sodipodi="http://sodipodi.sourceforge.net/DTD/sodipodi-0.dtd"
   xmlns:inkscape="http://www.inkscape.org/namespaces/inkscape"
   id="svg12"
   width="32"
   height="32"
   version="1.1"
   sodipodi:docname="start.svg"
   inkscape:version="1.0.1 (3bc2e813f5, 2020-09-07)">
  <metadata
     id="metadata19">
    <rdf:RDF>
      <cc:Work
         rdf:about="">
        <dc:format>image/svg+xml</dc:format>
        <dc:type
           rdf:resource="http://purl.org/dc/dcmitype/StillImage" />
      </cc:Work>
    </rdf:RDF>
  </metadata>
  <defs
     id="defs17">
    <linearGradient
       inkscape:collect="always"
       id="linearGradient840">
      <stop
         style="stop-color:#cccccc;stop-opacity:1"
         offset="0"
         id="stop836" />
      <stop
         style="stop-color:#2868a4;stop-opacity:1"
         offset="1"
         id="stop838" />
    </linearGradient>
    <linearGradient
       inkscape:collect="always"
       xlink:href="#linearGradient840"
       id="linearGradient842"
       x1="7.1700687"
       y1="7.0499673"
       x2="20.071646"
       y2="20.140713"
       gradientUnits="userSpaceOnUse" />
    <linearGradient
       inkscape:collect="always"
       xlink:href="#linearGradient840"
       id="linearGradient850"
       x1="-16.939367"
       y1="14.698053"
       x2="-9.0629406"
       y2="23.577332"
       gradientUnits="userSpaceOnUse" />
  </defs>
  <sodipodi:namedview
     pagecolor="#ffffff"
     bordercolor="#666666"
     borderopacity="1"
     objecttolerance="10"
     gridtolerance="10"
     guidetolerance="10"
     inkscape:pageopacity="0"
     inkscape:pageshadow="2"
     inkscape:window-width="1920"
     inkscape:window-height="1007"
     id="namedview15"
     showgrid="false"
     inkscape:zoom="7.1363635"
     inkscape:cx="36.411188"
     inkscape:cy="20.4923"
     inkscape:window-x="0"
     inkscape:window-y="0"
     inkscape:window-maximized="1"
     inkscape:current-layer="svg12"
     inkscape:document-rotation="0" />
  <g
     id="start-here-kde">
    <rect
       id="rect7"
       style="opacity:0.00100002"
       width="32"
       height="32"
       x="0"
       y="0" />
    <path
       d="m 15.451821,3.3806394 c -0.124269,0.1325133 -0.140766,0.3810444 -0.140766,1.7647644 v 1.6072477 l -1.275681,-1.27569 -1.275681,-1.2759499 -0.265036,0.10777 c -0.290049,0.12428 -0.497074,0.3728111 -0.497074,0.6213422 0,0.1077844 0.58808,0.75387 1.657002,1.8225277 l 1.657002,1.6569944 v 1.7562571 1.756256 l -0.472326,0.132513 c -0.505323,0.149024 -1.226188,0.480582 -1.433213,0.671104 -0.116019,0.09926 -0.298298,-0.04976 -1.3917,-1.15167 l -1.259183,-1.25918 -0.0165,-2.3611034 -0.02475,-2.3528555 -0.22379,-0.1242656 C 10.324349,5.3854271 10.200081,5.3689316 9.9515438,5.4269404 L 9.6367488,5.5096927 9.595237,7.3157104 9.5537251,9.1134803 8.5595775,8.1110792 C 8.0127427,7.5642559 7.45766,7.0589315 7.3333916,6.9926748 c -0.397553,-0.2155544 -0.803621,0.032991 -0.803621,0.4805667 0,0.2237878 0.1657803,0.4225722 1.0769055,1.3504544 0.5965946,0.5965989 1.0769041,1.1101711 1.0769041,1.1431622 0,0.033266 -0.7871225,0.049761 -1.7480074,0.049761 -1.4084647,-0.0082 -1.7645058,0.0082 -1.8225161,0.09952 -0.10777,0.174027 -0.091006,0.770366 0.025013,0.886384 0.074509,0.0745 0.7291122,0.09952 2.4273599,0.09952 h 2.31959 l 1.2674324,1.267428 1.267431,1.267702 -0.290048,0.555085 c -0.157531,0.30654 -0.33981,0.778874 -0.397553,1.052148 l -0.09952,0.497077 H 9.8432423 8.0619722 L 6.4049706,14.084218 c -0.9526371,-0.95264 -1.7232612,-1.656994 -1.8060177,-1.656994 -0.1987772,0 -0.6378407,0.439053 -0.6378407,0.637837 0,0.08275 0.5633334,0.712343 1.2591829,1.408464 l 1.2674321,1.267427 H 4.855739 3.2237508 l -0.1657803,0.21554 c -0.2155414,0.273289 -0.2155414,0.455564 -0.016498,0.704109 0.1575311,0.190522 0.1987772,0.19877 1.7397581,0.240284 l 1.5824943,0.04151 -1.2014397,1.201431 c -0.7621091,0.762118 -1.2011726,1.259194 -1.2011726,1.366964 0.00825,0.348054 0.5468349,0.770351 0.803621,0.62959 0.082757,-0.04151 0.8533807,-0.795383 1.7232597,-1.657009 l 1.5739793,-1.582229 h 1.7895193 1.7975011 l 0.09101,0.389306 c 0.05801,0.223788 0.248536,0.671103 0.430815,1.010649 l 0.331294,0.621342 -1.267432,1.267428 -1.2674321,1.267702 H 7.6308908 c -2.2285842,0 -2.3446034,0.0082 -2.4273599,0.157531 -0.1160192,0.223788 -0.10777,0.695847 0.016498,0.820112 0.074507,0.07452 0.6048438,0.09952 1.8722758,0.09952 h 1.7732867 l -1.1101668,1.16818 c -0.6793525,0.712356 -1.1101667,1.234436 -1.1266652,1.358702 -0.041512,0.306554 0.3395427,0.654608 0.6295915,0.579829 0.1325176,-0.03299 0.6711033,-0.488815 1.3254409,-1.143162 L 9.677462,23.404625 v 1.756257 c 0,1.723251 0,1.756257 0.1822773,1.880522 0.2402887,0.165779 0.5550837,0.165779 0.7953717,0 0.182279,-0.124265 0.182279,-0.140761 0.182279,-2.460625 v -2.336346 l 1.259183,-1.259194 1.250933,-1.250932 0.422567,0.23205 c 0.397551,0.21554 0.944386,0.41431 1.482972,0.530327 l 0.223789,0.04976 v 1.764504 1.756257 l -1.657002,1.657008 c -1.772755,1.773013 -1.831029,1.864027 -1.449709,2.236824 0.364556,0.372811 0.488825,0.298306 1.78127,-0.994139 0.662854,-0.662856 1.226186,-1.201171 1.259183,-1.201171 0.04151,0 0.06626,0.72085 0.06626,1.607233 0,1.573982 0.0082,1.615495 0.182279,1.739761 0.256786,0.182274 0.53007,0.165779 0.729112,-0.03327 0.157265,-0.157531 0.16578,-0.273288 0.16578,-1.739761 0,-0.869873 0.02475,-1.573967 0.06626,-1.573967 0.03326,0 0.596596,0.538575 1.259183,1.201171 0.853382,0.853378 1.250934,1.201171 1.391701,1.201171 0.23204,0 0.596596,-0.372811 0.596596,-0.613095 0,-0.116017 -0.546835,-0.720864 -1.657002,-1.831035 L 16.55374,24.066947 v -1.764505 c 0,-1.333699 0.02475,-1.773026 0.10777,-1.789522 0.04976,-0.02502 0.314795,-0.09952 0.57983,-0.182274 0.265035,-0.07452 0.695851,-0.265042 0.952637,-0.422573 l 0.463811,-0.281536 1.267698,1.267442 1.267432,1.267428 -0.0082,2.278336 c -0.0082,1.250932 -0.0082,2.31959 0,2.377599 0,0.04976 0.140767,0.140776 0.298298,0.190537 0.223789,0.0745 0.331294,0.06626 0.513572,-0.0165 l 0.232039,-0.10777 0.04151,-1.806018 0.04151,-1.79777 1.118418,1.118405 c 0.952635,0.95264 1.151678,1.118419 1.375202,1.118419 0.314795,0 0.530336,-0.223788 0.530336,-0.546824 0,-0.198784 -0.198777,-0.439067 -1.134914,-1.375212 l -1.143164,-1.143162 h 1.789519 c 1.89729,0 1.905539,0 2.004794,-0.397554 0.05801,-0.232036 -0.08276,-0.679351 -0.215274,-0.687599 -0.05801,-0.0082 -1.126667,-0.0082 -2.377601,0 l -2.278344,0.01649 -1.268229,-1.275675 -1.275681,-1.275676 0.298298,-0.555085 c 0.157529,-0.298307 0.339808,-0.770626 0.397819,-1.043915 l 0.09925,-0.497076 h 1.78127 1.789519 l 1.673498,1.673504 1.664986,1.665257 0.265035,-0.10777 c 0.290049,-0.12428 0.497074,-0.372811 0.497074,-0.621357 0,-0.09951 -0.455562,-0.621342 -1.217937,-1.383446 l -1.225922,-1.226188 h 1.557481 c 1.540982,0 1.557481,0 1.756257,-0.207018 0.265035,-0.256793 0.265035,-0.488829 0,-0.745608 -0.198776,-0.207032 -0.215275,-0.207032 -1.797769,-0.207032 h -1.598991 l 1.267432,-1.267428 c 0.69585,-0.695861 1.259183,-1.325451 1.259183,-1.408463 0,-0.198785 -0.439065,-0.637852 -0.637841,-0.637852 -0.08276,0 -0.85338,0.704109 -1.806018,1.657009 l -1.657001,1.656994 h -1.789519 -1.78952 l -0.149014,-0.538576 c -0.07451,-0.298306 -0.265036,-0.745607 -0.422567,-1.002401 -0.157265,-0.256779 -0.281534,-0.488829 -0.281534,-0.52182 0,-0.02502 0.546835,-0.604846 1.226188,-1.27595 l 1.217937,-1.217941 h 2.377598 c 2.269829,0 2.385848,-0.0082 2.468872,-0.157256 0.04151,-0.09127 0.08276,-0.281797 0.08276,-0.422573 0,-0.140761 -0.04151,-0.331283 -0.08276,-0.422557 -0.0828,-0.1490147 -0.190569,-0.1575225 -1.888815,-0.1575225 H 22.974189 L 24.117353,8.7162003 C 25.343539,7.4900115 25.442794,7.307737 25.069989,6.9599437 24.713682,6.628646 24.556416,6.719646 23.330231,7.9293393 l -1.143164,1.1349144 v -1.79777 c 0,-1.6899999 -0.0082,-1.7977699 -0.157531,-1.8805221 -0.09101,-0.041513 -0.281533,-0.082752 -0.422565,-0.082752 -0.140767,0 -0.331295,0.041499 -0.422567,0.082752 -0.149282,0.082752 -0.157531,0.1987699 -0.157531,2.4688732 v 2.3775992 l -1.250933,1.250932 -1.258917,1.25892 -0.381055,-0.23205 C 17.730166,12.261705 17.199831,12.062935 16.694508,11.97166 L 16.387961,11.91365 V 10.157395 8.4093859 l 1.657001,-1.6570088 c 1.209422,-1.2094189 1.657002,-1.7064955 1.657002,-1.8475311 0,-0.2320355 -0.422567,-0.6793511 -0.629592,-0.6793511 -0.08276,0 -0.712348,0.5633333 -1.416714,1.2591944 l -1.267432,1.25918 V 5.1283738 c 0,-1.4664722 -0.0165,-1.6319911 -0.149016,-1.7562566 -0.207556,-0.1820145 -0.621873,-0.1737667 -0.787388,0.00852 z m 1.689732,10.5545696 c 0.903142,0.530328 1.358704,1.308941 1.358704,2.30308 0,1.002401 -0.505323,1.831035 -1.400216,2.303094 -0.364556,0.190537 -0.521821,0.223788 -1.168177,0.223788 -0.621342,0 -0.803621,-0.03299 -1.101917,-0.190522 -0.546835,-0.290045 -0.985899,-0.729112 -1.234435,-1.242684 -0.190528,-0.389307 -0.23204,-0.579829 -0.223791,-1.093676 0,-0.82836 0.232038,-1.358702 0.828369,-1.897018 0.596594,-0.546837 0.969399,-0.671103 1.864026,-0.64636 0.588879,0.02502 0.771156,0.05801 1.077437,0.240298 z"
       id="path4"
       style="fill:url(#linearGradient842);fill-opacity:1;stroke-width:0.002661" />
  </g>
  <g
     id="22-22-start-here-kde">
    <g
       id="g1384">
      <rect
         id="rect2"
         style="opacity:0.00100002"
         width="22"
         height="22"
         x="-22"
         y="10" />
      <path
         d="m -11.282505,12.330188 c -0.08602,0.09173 -0.09745,0.263792 -0.09745,1.221751 v 1.112715 l -0.883171,-0.883174 -0.883153,-0.883343 -0.18349,0.0746 c -0.200804,0.08603 -0.344132,0.258106 -0.344132,0.430161 0,0.07466 0.407137,0.521917 1.147158,1.261756 l 1.147158,1.147147 v 1.215869 1.215866 l -0.327006,0.09173 c -0.349832,0.103158 -0.848895,0.332712 -0.992211,0.464602 -0.08032,0.06874 -0.206515,-0.03444 -0.963494,-0.797298 l -0.871738,-0.871736 -0.01146,-1.634609 -0.01719,-1.628907 -0.154927,-0.08604 c -0.114771,-0.06322 -0.200808,-0.07459 -0.372867,-0.03447 l -0.217941,0.05726 -0.02871,1.250322 -0.02871,1.244612 -0.688254,-0.693975 c -0.378578,-0.378565 -0.762866,-0.728399 -0.848899,-0.77427 -0.275229,-0.149229 -0.556346,0.02284 -0.556346,0.332693 0,0.154934 0.114763,0.292553 0.745544,0.934934 0.413026,0.413032 0.745544,0.768577 0.745544,0.791417 0,0.02303 -0.54493,0.03446 -1.210154,0.03446 -0.975092,-0.0057 -1.221577,0.0057 -1.261737,0.0689 -0.07464,0.120486 -0.06301,0.533331 0.01732,0.613646 0.05156,0.05157 0.504762,0.06891 1.680478,0.06891 h 1.605865 l 0.877454,0.877449 0.877453,0.877643 -0.200809,0.38429 c -0.109045,0.21222 -0.235239,0.539218 -0.275216,0.728407 l -0.06889,0.344127 h -1.238885 -1.233185 l -1.147182,-1.147338 c -0.659516,-0.659519 -1.193019,-1.147149 -1.250316,-1.147149 -0.137611,0 -0.441586,0.303966 -0.441586,0.44158 0,0.05729 0.390006,0.493161 0.871741,0.975094 l 0.877457,0.877443 h -1.129823 -1.129849 l -0.11477,0.149216 c -0.149221,0.1892 -0.149221,0.315385 -0.01144,0.48746 0.109059,0.131898 0.13761,0.137615 1.204441,0.166353 l 1.095578,0.02871 -0.831761,0.831761 c -0.527621,0.527617 -0.831584,0.871746 -0.831584,0.946362 0.0058,0.240952 0.37857,0.533313 0.556354,0.435863 0.05729,-0.02871 0.590796,-0.550643 1.193022,-1.147158 l 1.089674,-1.095391 h 1.238899 1.244426 l 0.06301,0.269525 c 0.04016,0.154927 0.172059,0.464606 0.298256,0.699681 l 0.229356,0.430159 -0.877456,0.877448 -0.877455,0.877639 h -1.617471 c -1.542865,0 -1.623181,0.0057 -1.680478,0.109057 -0.08032,0.154937 -0.07461,0.481742 0.01145,0.567774 0.05156,0.05157 0.418738,0.06893 1.29619,0.06893 h 1.227651 l -0.768567,0.808734 c -0.470323,0.49317 -0.768579,0.85461 -0.780005,0.94064 -0.02871,0.212228 0.235067,0.453194 0.435871,0.401418 0.09174,-0.02284 0.464615,-0.338409 0.917616,-0.791415 l 0.757153,-0.757138 v 1.215872 c 0,1.193023 0,1.215871 0.12619,1.301899 0.166352,0.114765 0.384291,0.114765 0.550644,0 0.126189,-0.08601 0.126189,-0.09746 0.126189,-1.703508 v -1.617442 l 0.87174,-0.871753 0.866039,-0.866037 0.292545,0.160655 c 0.275228,0.14922 0.653797,0.286827 1.026674,0.36715 l 0.154922,0.03447 v 1.221581 1.215862 l -1.147135,1.147158 c -1.227289,1.227477 -1.26763,1.290486 -1.003641,1.548576 0.252388,0.258098 0.338418,0.206524 1.233188,-0.688256 0.458902,-0.45889 0.848898,-0.831576 0.871741,-0.831576 0.02871,0 0.04586,0.499053 0.04586,1.112701 0,1.089682 0.0057,1.118418 0.126192,1.204445 0.177778,0.126192 0.366972,0.114774 0.504779,-0.02304 0.108877,-0.10906 0.114769,-0.189198 0.114769,-1.204445 0,-0.602222 0.01715,-1.089673 0.0459,-1.089673 0.02301,0 0.413039,0.372863 0.871743,0.831582 0.590803,0.590794 0.866033,0.831585 0.963492,0.831585 0.160643,0 0.413023,-0.258104 0.413023,-0.424454 0,-0.08031 -0.378578,-0.499065 -1.147157,-1.267646 l -1.147171,-1.147143 v -1.221575 c 0,-0.923329 0.01714,-1.227479 0.07465,-1.238893 0.03447,-0.01733 0.217937,-0.0689 0.40142,-0.126187 0.183482,-0.05157 0.481741,-0.183497 0.659518,-0.292549 l 0.321099,-0.194918 0.877637,0.877463 0.877447,0.87744 -0.0057,1.577312 c -0.0057,0.866029 -0.0057,1.605877 0,1.646031 0,0.03448 0.09746,0.09747 0.206513,0.131913 0.154929,0.05156 0.229354,0.04586 0.355549,-0.01144 l 0.16064,-0.07464 0.02871,-1.25032 0.02871,-1.244607 0.774289,0.774278 c 0.659517,0.659518 0.797313,0.774293 0.952062,0.774293 0.217937,0 0.367156,-0.154932 0.367156,-0.378573 0,-0.137618 -0.137619,-0.303968 -0.785711,-0.952068 l -0.791528,-0.79141 h 1.238892 c 1.313503,0 1.319217,0 1.387931,-0.275232 0.04017,-0.16064 -0.0573,-0.470315 -0.149036,-0.476025 -0.04016,-0.0057 -0.779998,-0.0057 -1.646029,0 l -1.577315,0.01145 -0.878003,-0.883165 -0.883163,-0.883158 0.206512,-0.384284 c 0.109058,-0.206527 0.235253,-0.533508 0.275414,-0.722713 l 0.06872,-0.344125 h 1.233187 1.238897 l 1.158575,1.158571 1.152682,1.152868 0.183486,-0.07461 c 0.200803,-0.08603 0.344127,-0.258098 0.344127,-0.430168 0,-0.06891 -0.315388,-0.430163 -0.843189,-0.95777 l -0.84873,-0.848893 h 1.078254 c 1.066836,0 1.078257,0 1.215872,-0.143323 0.183486,-0.177784 0.183486,-0.33842 0,-0.516189 -0.13759,-0.143326 -0.149012,-0.143326 -1.244584,-0.143326 h -1.106939 l 0.877456,-0.877454 c 0.48174,-0.481745 0.871739,-0.91762 0.871739,-0.975083 0,-0.137631 -0.303967,-0.441594 -0.441582,-0.441594 -0.05728,0 -0.5908,0.48746 -1.250317,1.147158 l -1.147181,1.147136 h -1.238957 -1.238895 l -0.103168,-0.372862 c -0.05156,-0.20651 -0.183488,-0.516189 -0.292545,-0.693964 -0.108876,-0.177773 -0.194909,-0.338422 -0.194909,-0.36126 0,-0.01731 0.378579,-0.418742 0.848899,-0.883357 l 0.843215,-0.843185 h 1.64603 c 1.571417,0 1.651739,-0.0057 1.709216,-0.108877 0.02871,-0.06322 0.05728,-0.195093 0.05728,-0.292548 0,-0.09746 -0.02871,-0.229349 -0.05728,-0.292538 -0.0573,-0.103169 -0.131903,-0.109061 -1.307612,-0.109061 h -1.244584 l 0.791417,-0.791408 c 0.848898,-0.848903 0.91762,-0.975097 0.659519,-1.215875 -0.246669,-0.229355 -0.35555,-0.166355 -1.204444,0.671119 l -0.791418,0.785712 v -1.244598 c 0,-1.17 -0.0057,-1.244604 -0.10906,-1.301901 -0.06301,-0.02871 -0.194914,-0.05726 -0.29255,-0.05726 -0.09746,0 -0.229354,0.0287 -0.292539,0.05726 -0.103355,0.05729 -0.109062,0.13762 -0.109062,1.709218 v 1.646037 L -8.288933,17.93975 -9.160493,18.811311 -9.4243,18.65065 c -0.28088,-0.172036 -0.648041,-0.309645 -0.997871,-0.372829 l -0.212221,-0.04016 v -1.215875 -1.210155 l 1.147144,-1.14716 c 0.837294,-0.837297 1.14716,-1.181428 1.14716,-1.279059 0,-0.160647 -0.292546,-0.470324 -0.435876,-0.470324 -0.0573,0 -0.493163,0.389999 -0.980799,0.871748 l -0.877448,0.871741 v -1.118418 c 0,-1.015259 -0.01144,-1.129842 -0.103171,-1.215872 -0.1437,-0.126011 -0.430531,-0.120305 -0.545116,0.006 z m 1.169818,7.306998 c 0.625258,0.367153 0.940646,0.906186 0.940646,1.594439 0,0.693967 -0.349842,1.267637 -0.969379,1.594448 -0.252388,0.131915 -0.361259,0.154933 -0.808734,0.154933 -0.430164,0 -0.556361,-0.02284 -0.76287,-0.131903 -0.378584,-0.200801 -0.682545,-0.504765 -0.854603,-0.860322 -0.131908,-0.269518 -0.160649,-0.401416 -0.154931,-0.757156 0,-0.573481 0.160632,-0.940639 0.573485,-1.313313 0.41302,-0.37858 0.671113,-0.464613 1.290466,-0.44748 0.407691,0.0173 0.533879,0.04017 0.74592,0.166354 z"
         id="path4-2"
         style="fill:url(#linearGradient850);fill-opacity:1;stroke-width:0.0018423" />
    </g>
  </g>
</svg>
